<?xml version="1.0" encoding="utf-8"?>
<!-- Generator: Adobe Illustrator 16.0.0, SVG Export Plug-In . SVG Version: 6.00 Build 0)  -->
<!DOCTYPE svg PUBLIC "-//W3C//DTD SVG 1.1//EN" "http://www.w3.org/Graphics/SVG/1.1/DTD/svg11.dtd">
<svg version="1.1" xmlns="http://www.w3.org/2000/svg" xmlns:xlink="http://www.w3.org/1999/xlink" x="0px" y="0px" width="50px"
	 height="50px" viewBox="0 0 50 50" enable-background="new 0 0 50 50" xml:space="preserve">
<g id="Layer_1" display="none">
	<text transform="matrix(1 0 0 1 2.25 44.25)" display="inline" font-family="'ArchitectsDaughter'" font-size="72">a</text>
</g>
<g id="Layer_2" display="none">
	<g display="inline">
		<g>
			<path fill="#010202" d="M7.012,22.659c3.5-1.646,6.438-4.665,9.594-6.891c4.508-3.18,9.582-5.375,14.281-8.234
				c-0.841-1.439-1.683-2.878-2.523-4.317C19.076,9.849,9.975,17.165,3.216,26.363c-1.446,1.968,0.928,4.002,2.823,3.673
				c4.543-0.791,8.739-3.645,13.037-5.26c5.22-1.962,10.308-3.435,15.185-6.243c-1.14-1.14-2.28-2.28-3.42-3.42
				c-4.698,7.156-12.296,11.697-19.354,16.229c-2.737,1.756-0.363,5.712,2.523,4.316c4.049-1.956,8.127-3.849,12.225-5.702
				c4.252-1.924,8.276-4.582,12.804-5.795c-0.812-1.393-1.622-2.786-2.433-4.178c-4.565,5.815-11.271,9.563-16.25,15
				c-1.189,1.298-0.833,3.778,1.103,4.179c5.359,1.106,11.162-1.106,16.54-1.536c-0.589-1.423-1.179-2.845-1.768-4.268
				c-1.479,1.174-3.059,2.153-4.5,3.375c-1.711,1.45-0.288,4.28,1.768,4.268c1.247-0.008,2.506-0.265,3.741-0.421
				c0.881-0.112,1.764-0.188,2.649-0.251c3.01-0.214-0.334,0.242,0.951-1.715c-1.775,2.704,2.556,5.206,4.316,2.523
				c4.904-7.47-8.737-5.154-11.658-5.137c0.589,1.423,1.179,2.845,1.768,4.268c1.429-1.21,3.032-2.21,4.5-3.375
				c1.689-1.341,0.305-4.433-1.768-4.268c-4.538,0.362-10.783,2.629-15.21,1.714c0.368,1.394,0.735,2.786,1.103,4.179
				c4.979-5.438,11.685-9.185,16.25-15c1.461-1.86,0.189-4.881-2.433-4.178c-3.878,1.04-7.267,3.019-10.814,4.846
				c-5.021,2.584-10.319,4.698-15.407,7.157c0.841,1.438,1.682,2.878,2.523,4.316c7.822-5.021,15.948-10.102,21.146-18.021
				c1.414-2.154-1.322-4.628-3.42-3.42c-4.457,2.566-9.154,4.091-13.991,5.739c-4.366,1.487-8.515,4.472-13.037,5.259
				c0.941,1.224,1.882,2.449,2.823,3.672c6.142-8.359,14.893-15.311,23.353-21.353c2.575-1.839,0.279-6.022-2.523-4.317
				c-4.193,2.551-8.653,4.605-12.801,7.236c-3.733,2.368-7.093,6.017-11.074,7.889C1.572,19.713,4.112,24.022,7.012,22.659
				L7.012,22.659z"/>
		</g>
	</g>
</g>
<g id="Layer_3">
	<g>
		<g>
			<path fill="#010202" d="M17.341,4.613c-3.413,6.47-10.164,10.812-14.25,16.875c-1.489,2.209,1.34,4.498,3.42,3.42
				c9.292-4.81,18.298-11.302,28.528-13.998c-0.812-1.393-1.622-2.786-2.433-4.178c-4.177,5.239-9.475,9.227-15.369,12.359
				c0.841,1.439,1.682,2.878,2.523,4.317c3.749-2.542,8.204-3.535,12.25-5.5c-0.841-1.439-1.683-2.878-2.523-4.317
				c-5.079,2.518-9.685,5.784-14.5,8.751c-4.077,2.513-9.597,5.093-12.631,8.89c-1.524,1.906-0.16,4.78,2.432,4.179
				c6.831-1.586,13.464-5.15,20.088-7.509c7.182-2.556,14.59-4.281,21.913-6.367c-0.643-1.523-1.285-3.046-1.927-4.569
				c-9.211,6.21-19.105,11.142-29.25,15.625c-2.58,1.14-0.689,5.646,1.926,4.569c3.267-1.345,6.301-3.159,9.558-4.514
				c2.764-1.149,6.111-3.321,9.237-2.861C35.968,28.393,35.6,27,35.232,25.607c-4.433,4.43-11.142,5.245-15.875,9.375
				c-1.574,1.373-0.384,4.48,1.768,4.268c6.979-0.691,13.11-4.056,19.915-5.464c-0.812-1.394-1.622-2.786-2.433-4.179
				c-5.234,4.729-13.335,5.354-18.994,9.609c-1.522,1.144-1.786,4.141,0.597,4.569c7.487,1.344,14.035-2.812,21.415-2.661
				c-0.589-1.423-1.179-2.845-1.768-4.268c-2.365,2.504-5.733,3.258-8.619,4.984c-2.016,1.205-1.315,4.875,1.262,4.658
				c2.827-0.237,5.364-1.043,8.04-1.964c3.029-1.043,1.728-5.874-1.33-4.822C37,40.476,34.854,41.302,32.5,41.5
				c0.421,1.553,0.841,3.105,1.262,4.658c3.296-1.971,6.924-2.9,9.631-5.766c1.504-1.592,0.441-4.223-1.768-4.268
				c-6.791-0.139-13.354,4.048-20.085,2.839c0.199,1.523,0.398,3.047,0.597,4.569c6.061-4.556,14.338-5.27,20.006-10.391
				c1.981-1.789-0.138-4.653-2.433-4.179c-6.327,1.311-12.112,4.646-18.585,5.286c0.589,1.423,1.179,2.845,1.768,4.268
				c4.731-4.129,11.345-4.848,15.875-9.375c1.206-1.205,0.824-3.895-1.103-4.178c-7.54-1.108-14.823,4.646-21.455,7.375
				c0.642,1.523,1.284,3.047,1.926,4.569c10.145-4.482,20.039-9.414,29.25-15.625c2.286-1.542,0.907-5.376-1.927-4.569
				c-7.327,2.087-14.702,3.878-21.912,6.367c-6.643,2.293-13.259,5.922-20.088,7.507c0.811,1.394,1.622,2.786,2.432,4.179
				c3.078-3.852,9.071-6.537,13.244-9.109c4.282-2.638,8.356-5.509,12.875-7.75c2.895-1.435,0.359-5.717-2.523-4.317
				c-4.068,1.976-8.469,2.937-12.25,5.5c-2.653,1.799-0.347,5.843,2.523,4.317c6.228-3.309,11.967-7.604,16.381-13.141
				c1.486-1.863,0.175-4.865-2.433-4.178C23.044,8.9,13.672,15.578,3.988,20.591c1.14,1.14,2.28,2.28,3.42,3.42
				c4.105-6.091,10.798-10.329,14.25-16.875C23.162,4.288,18.846,1.76,17.341,4.613L17.341,4.613z"/>
		</g>
	</g>
</g>
</svg>
