<?xml version="1.0" encoding="utf-8"?>
<!-- Generator: Adobe Illustrator 16.0.0, SVG Export Plug-In . SVG Version: 6.00 Build 0)  -->
<!DOCTYPE svg PUBLIC "-//W3C//DTD SVG 1.1//EN" "http://www.w3.org/Graphics/SVG/1.1/DTD/svg11.dtd">
<svg version="1.1" xmlns="http://www.w3.org/2000/svg" xmlns:xlink="http://www.w3.org/1999/xlink" x="0px" y="0px" width="50px"
	 height="50px" viewBox="0 0 50 50" enable-background="new 0 0 50 50" xml:space="preserve">
<g id="Layer_1" display="none">
	<text transform="matrix(1 0 0 1 2.25 44.25)" display="inline" font-family="'ArchitectsDaughter'" font-size="72">a</text>
</g>
<g id="Layer_2">
	<g>
		<g>
			<path fill="#010202" d="M7.012,22.659c3.5-1.646,6.438-4.665,9.594-6.891c4.508-3.18,9.582-5.375,14.281-8.234
				c-0.841-1.439-1.683-2.878-2.523-4.317C19.076,9.849,9.975,17.165,3.216,26.363c-1.446,1.968,0.928,4.002,2.823,3.673
				c4.543-0.791,8.739-3.645,13.037-5.26c5.22-1.962,10.308-3.435,15.185-6.243c-1.14-1.14-2.28-2.28-3.42-3.42
				c-4.698,7.156-12.296,11.697-19.354,16.229c-2.737,1.756-0.363,5.712,2.523,4.316c4.049-1.956,8.127-3.849,12.225-5.702
				c4.252-1.924,8.276-4.582,12.804-5.795c-0.812-1.393-1.622-2.786-2.433-4.178c-4.565,5.815-11.271,9.563-16.25,15
				c-1.189,1.298-0.833,3.778,1.103,4.179c5.359,1.106,11.162-1.106,16.54-1.536c-0.589-1.423-1.179-2.845-1.768-4.268
				c-1.479,1.174-3.059,2.153-4.5,3.375c-1.711,1.45-0.288,4.28,1.768,4.268c1.247-0.008,2.506-0.265,3.741-0.421
				c0.881-0.112,1.764-0.188,2.649-0.251c3.01-0.214-0.334,0.242,0.951-1.715c-1.775,2.704,2.556,5.206,4.316,2.523
				c4.904-7.47-8.737-5.154-11.658-5.137c0.589,1.423,1.179,2.845,1.768,4.268c1.429-1.21,3.032-2.21,4.5-3.375
				c1.689-1.341,0.305-4.433-1.768-4.268c-4.538,0.362-10.783,2.629-15.21,1.714c0.368,1.394,0.735,2.786,1.103,4.179
				c4.979-5.438,11.685-9.185,16.25-15c1.461-1.86,0.189-4.881-2.433-4.178c-3.878,1.04-7.267,3.019-10.814,4.846
				c-5.021,2.584-10.319,4.698-15.407,7.157c0.841,1.438,1.682,2.878,2.523,4.316c7.822-5.021,15.948-10.102,21.146-18.021
				c1.414-2.154-1.322-4.628-3.42-3.42c-4.457,2.566-9.154,4.091-13.991,5.739c-4.366,1.487-8.515,4.472-13.037,5.259
				c0.941,1.224,1.882,2.449,2.823,3.672c6.142-8.359,14.893-15.311,23.353-21.353c2.575-1.839,0.279-6.022-2.523-4.317
				c-4.193,2.551-8.653,4.605-12.801,7.236c-3.733,2.368-7.093,6.017-11.074,7.889C1.572,19.713,4.112,24.022,7.012,22.659
				L7.012,22.659z"/>
		</g>
	</g>
</g>
</svg>
